{"asset":{"version":"2.0","generator":"VECTARY"},"nodes":[{"translation":[0,0,0],"scale":[0.001,0.001,0.001],"rotation":[-0.7071067811865475,0,0,0.7071067811865476],"name":"Group","children":[1,2,3]},{"translation":[-259.5804635046361,-260.8584353947098,-54.932928582855475],"scale":[1000,1000,1000],"rotation":[0.7154879521465544,-0.2830318456412274,-0.23495112492759976,0.5939427022712763],"name":"Camera","camera":0},{"translation":[-19.28663099982424,-25.030808755933748,-33.55285517604831],"scale":[1.6338318392681912,1.6338318392681912,1.6338318392681912],"rotation":[0,0.01167996646358111,0,0.9999317868651888],"name":"Set"},{"translation":[0,0,0],"scale":[1,1,1],"rotation":[0,0,0,1],"name":"Amouage","children":[4,5,6,7,8,9,10,13]},{"translation":[-24.16412353515625,23.88878631591798,35.36931610107422],"scale":[0.5033092498779297,0.5033092498779301,0.5033092498779301],"rotation":[0.7071067811865475,0,0,0.7071067811865476],"name":"glass body","mesh":0},{"translation":[-23.97449493408203,14.047943115234393,66.32672119140626],"scale":[0.561743438243866,0.561743438243866,0.561743438243866],"rotation":[0,0,0,1],"name":"Sphere002","mesh":1},{"translation":[-23.97449493408203,14.047943115234393,65.57700347900392],"scale":[0.5891813039779663,0.5891813039779663,0.6075244545936584],"rotation":[0,0,0,1],"name":"Shape001","mesh":2},{"translation":[-27.526390075683594,6.619338989257821,30.293373107910163],"scale":[0.5033092498779297,0.5033092498779301,0.5033092498779301],"rotation":[0.7071067811865475,0,0,0.7071067811865476],"name":"water","mesh":3},{"translation":[-24.028472900390625,3.990524291992194,25.478675842285163],"scale":[1,1.0000000000000002,1.0000000000000002],"rotation":[0.7071067811865475,0,0,0.7071067811865476],"name":"Text001","mesh":4},{"translation":[-24.093055725097656,6.180267333984391,62.44428634643556],"scale":[1,0.8310713171958933,1.000000000000001],"rotation":[0.7071067811865475,0,0,0.7071067811865476],"name":"Text002","mesh":5},{"translation":[-24.114831924438477,3.46187162399293,41.76767730712891],"scale":[0.13681913912296295,0.13681913912296312,0.13681913912296312],"rotation":[0.7071067811865475,0,0,0.7071067811865476],"name":"Cylinder001","children":[11,12]},{"translation":[0,0,0],"scale":[1,1,1],"rotation":[0,0,0,1],"name":"Buffer Object","mesh":6},{"translation":[0,0,0],"scale":[1,1,1],"rotation":[0,0,0,1],"name":"Buffer Object","mesh":7},{"translation":[-24.0914249420166,3.7355098724365337,41.65931701660157],"scale":[0.13681913518351452,0.1368191351835146,0.13681913912296306],"rotation":[0.6825996890304722,0.18454723897631173,-0.18454724704312836,0.682599659193092],"name":"NGon001","mesh":8}],"cameras":[{"name":"Camera","type":"perspective","extras":{"targetDistance":0.4697658892501729},"perspective":{"aspectRatio":1.3865628042843232,"yfov":0.5619960191421741,"zfar":37.814885280034574,"znear":0.011406438311581675}}],"materials":[{"pbrMetallicRoughness":{"baseColorFactor":[0.31118049905798434,0.011126082368383245,0,0.9],"metallicFactor":0.13,"roughnessFactor":0.2},"name":"Material #43 1","emissiveFactor":[0,0,0],"extensions":{},"alphaMode":"BLEND","doubleSided":false},{"pbrMetallicRoughness":{"baseColorFactor":[0.4590798924241601,0.007155037004573032,0,1],"metallicFactor":0,"roughnessFactor":0.2},"name":"Material #43","emissiveFactor":[0,0,0],"extensions":{},"alphaMode":"OPAQUE","doubleSided":false},{"pbrMetallicRoughness":{"baseColorFactor":[0.5479935021969718,0.25902733248960613,0.01991783843878572,1],"metallicFactor":0,"roughnessFactor":0.2},"name":"Material #42","emissiveFactor":[0,0,0],"extensions":{},"alphaMode":"OPAQUE","doubleSided":false},{"pbrMetallicRoughness":{"baseColorFactor":[1,0.348864834082879,0.001433134589671864,0.79],"metallicFactor":1,"roughnessFactor":0.21},"name":"Material #41","emissiveFactor":[0.05,0.05,0.05],"extensions":{},"alphaMode":"BLEND","doubleSided":false},{"pbrMetallicRoughness":{"baseColorFactor":[1,1,1,1],"baseColorTexture":{"index":0,"extensions":{"KHR_texture_transform":{"offset":[0,0],"scale":[1,1],"rotation":0}},"texCoord":0},"metallicFactor":0,"roughnessFactor":0.2},"name":"Happy Glow","emissiveFactor":[0,0,0],"extensions":{},"alphaMode":"OPAQUE","doubleSided":false},{"pbrMetallicRoughness":{"baseColorFactor":[1,0.4995052766030301,0.051122050056493396,1],"metallicFactor":0,"roughnessFactor":0.2},"name":"Material #117","emissiveFactor":[0,0,0],"extensions":{},"alphaMode":"OPAQUE","doubleSided":false},{"pbrMetallicRoughness":{"baseColorFactor":[0.9573695761995268,0.3250369625210763,0.0003671362698159426,1],"metallicFactor":0,"roughnessFactor":0.2},"name":"Material #116","emissiveFactor":[0,0,0],"extensions":{},"alphaMode":"OPAQUE","doubleSided":false}],"meshes":[{"primitives":[{"mode":4,"attributes":{"POSITION":1,"NORMAL":2,"TEXCOORD_0":3},"material":0,"indices":0}]},{"primitives":[{"mode":4,"attributes":{"POSITION":5,"NORMAL":6,"TEXCOORD_0":7},"material":1,"indices":4}]},{"primitives":[{"mode":4,"attributes":{"POSITION":9,"NORMAL":10,"TEXCOORD_0":11},"material":2,"indices":8}]},{"primitives":[{"mode":4,"attributes":{"POSITION":13,"NORMAL":14,"TEXCOORD_0":15},"material":3,"indices":12}]},{"primitives":[{"mode":4,"attributes":{"POSITION":17,"NORMAL":18,"TEXCOORD_0":19},"material":2,"indices":16}]},{"primitives":[{"mode":4,"attributes":{"POSITION":21,"NORMAL":22,"TEXCOORD_0":23},"material":2,"indices":20}]},{"primitives":[{"mode":4,"attributes":{"POSITION":25,"NORMAL":26,"TEXCOORD_0":27},"material":4,"indices":24}]},{"primitives":[{"mode":4,"attributes":{"POSITION":29,"NORMAL":30,"TEXCOORD_0":31},"material":5,"indices":28}]},{"primitives":[{"mode":4,"attributes":{"POSITION":33,"NORMAL":34,"TEXCOORD_0":35},"material":6,"indices":32}]}],"accessors":[{"bufferView":0,"byteOffset":0,"componentType":5125,"count":55296,"type":"SCALAR"},{"bufferView":1,"byteOffset":0,"componentType":5126,"count":9930,"max":[54.88518142700195,76.8349609375,39.90226364135742],"min":[-54.885135650634766,-49.86480712890625,0.09724510461091995],"type":"VEC3"},{"bufferView":2,"byteOffset":0,"componentType":5126,"count":9930,"type":"VEC3"},{"bufferView":3,"byteOffset":0,"componentType":5126,"count":9930,"type":"VEC2"},{"bufferView":4,"byteOffset":0,"componentType":5125,"count":22464,"type":"SCALAR"},{"bufferView":5,"byteOffset":0,"componentType":5126,"count":4017,"max":[25.914249420166016,25.91423797607422,29.86840057373047],"min":[-25.91424560546875,-25.91424560546875,-1.3473777471517678e-7],"type":"VEC3"},{"bufferView":6,"byteOffset":0,"componentType":5126,"count":4017,"type":"VEC3"},{"bufferView":7,"byteOffset":0,"componentType":5126,"count":4017,"type":"VEC2"},{"bufferView":8,"byteOffset":0,"componentType":5125,"count":34920,"type":"SCALAR"},{"bufferView":9,"byteOffset":0,"componentType":5126,"count":23202,"max":[24.940082550048828,24.940093994140625,28.763309478759766],"min":[-24.940082550048828,-24.94008445739746,1.6166620254516602],"type":"VEC3"},{"bufferView":10,"byteOffset":0,"componentType":5126,"count":23202,"type":"VEC3"},{"bufferView":11,"byteOffset":0,"componentType":5126,"count":23202,"type":"VEC2"},{"bufferView":12,"byteOffset":0,"componentType":5125,"count":3036,"type":"SCALAR"},{"bufferView":13,"byteOffset":0,"componentType":5126,"count":1932,"max":[55.98381805419922,41.96262741088867,0],"min":[-42.866676330566406,-34.128517150878906,-28.5],"type":"VEC3"},{"bufferView":14,"byteOffset":0,"componentType":5126,"count":1932,"type":"VEC3"},{"bufferView":15,"byteOffset":0,"componentType":5126,"count":1932,"type":"VEC2"},{"bufferView":16,"byteOffset":0,"componentType":5125,"count":12108,"type":"SCALAR"},{"bufferView":17,"byteOffset":0,"componentType":5126,"count":6078,"max":[16.681108474731445,4.2769999504089355,0.20000000298023224],"min":[-16.681110382080078,-0.09100000560283661,0],"type":"VEC3"},{"bufferView":18,"byteOffset":0,"componentType":5126,"count":6078,"type":"VEC3"},{"bufferView":19,"byteOffset":0,"componentType":5126,"count":6078,"type":"VEC2"},{"bufferView":20,"byteOffset":0,"componentType":5125,"count":13686,"type":"SCALAR"},{"bufferView":21,"byteOffset":0,"componentType":5126,"count":6882,"max":[8.253174781799316,2.565276861190796,0.19996380805969238],"min":[-8.253174781799316,-0.054580360651016235,-5.340803623199463],"type":"VEC3"},{"bufferView":22,"byteOffset":0,"componentType":5126,"count":6882,"type":"VEC3"},{"bufferView":23,"byteOffset":0,"componentType":5126,"count":6882,"type":"VEC2"},{"bufferView":24,"byteOffset":0,"componentType":5125,"count":1050,"type":"SCALAR"},{"bufferView":25,"byteOffset":0,"componentType":5126,"count":248,"max":[53.018821716308594,53.018821716308594,1.2885160446166992],"min":[-53.018821716308594,-53.018821716308594,0],"type":"VEC3"},{"bufferView":26,"byteOffset":0,"componentType":5126,"count":248,"type":"VEC3"},{"bufferView":27,"byteOffset":0,"componentType":5126,"count":248,"type":"VEC2"},{"bufferView":28,"byteOffset":0,"componentType":5125,"count":90,"type":"SCALAR"},{"bufferView":29,"byteOffset":0,"componentType":5126,"count":32,"max":[53.018821716308594,53.018821716308594,1.2885160446166992],"min":[-53.018821716308594,-53.018821716308594,1.2885160446166992],"type":"VEC3"},{"bufferView":30,"byteOffset":0,"componentType":5126,"count":32,"type":"VEC3"},{"bufferView":31,"byteOffset":0,"componentType":5126,"count":32,"type":"VEC2"},{"bufferView":32,"byteOffset":0,"componentType":5125,"count":9360,"type":"SCALAR"},{"bufferView":33,"byteOffset":0,"componentType":5126,"count":4686,"max":[74.27384185791016,74.22758483886719,2.0000064373016357],"min":[-74.05177307128906,-74.09803771972656,-4.589775226548909e-9],"type":"VEC3"},{"bufferView":34,"byteOffset":0,"componentType":5126,"count":4686,"type":"VEC3"},{"bufferView":35,"byteOffset":0,"componentType":5126,"count":4686,"type":"VEC2"},{"bufferView":36,"byteOffset":0,"componentType":5126,"count":5,"max":[30],"min":[0],"type":"SCALAR"},{"bufferView":37,"byteOffset":0,"componentType":5126,"count":5,"max":[0,0,1,1],"min":[0,0,0,-1],"type":"VEC4"}],"bufferViews":[{"buffer":0,"byteOffset":0,"byteLength":221184,"target":34963},{"buffer":0,"byteOffset":221184,"byteLength":119160,"target":34962},{"buffer":0,"byteOffset":340344,"byteLength":119160,"target":34962},{"buffer":0,"byteOffset":459504,"byteLength":79440,"target":34962},{"buffer":0,"byteOffset":538944,"byteLength":89856,"target":34963},{"buffer":0,"byteOffset":628800,"byteLength":48204,"target":34962},{"buffer":0,"byteOffset":677004,"byteLength":48204,"target":34962},{"buffer":0,"byteOffset":725208,"byteLength":32136,"target":34962},{"buffer":0,"byteOffset":757344,"byteLength":139680,"target":34963},{"buffer":0,"byteOffset":897024,"byteLength":278424,"target":34962},{"buffer":0,"byteOffset":1175448,"byteLength":278424,"target":34962},{"buffer":0,"byteOffset":1453872,"byteLength":185616,"target":34962},{"buffer":0,"byteOffset":1639488,"byteLength":12144,"target":34963},{"buffer":0,"byteOffset":1651632,"byteLength":23184,"target":34962},{"buffer":0,"byteOffset":1674816,"byteLength":23184,"target":34962},{"buffer":0,"byteOffset":1698000,"byteLength":15456,"target":34962},{"buffer":0,"byteOffset":1713456,"byteLength":48432,"target":34963},{"buffer":0,"byteOffset":1761888,"byteLength":72936,"target":34962},{"buffer":0,"byteOffset":1834824,"byteLength":72936,"target":34962},{"buffer":0,"byteOffset":1907760,"byteLength":48624,"target":34962},{"buffer":0,"byteOffset":1956384,"byteLength":54744,"target":34963},{"buffer":0,"byteOffset":2011128,"byteLength":82584,"target":34962},{"buffer":0,"byteOffset":2093712,"byteLength":82584,"target":34962},{"buffer":0,"byteOffset":2176296,"byteLength":55056,"target":34962},{"buffer":0,"byteOffset":2231352,"byteLength":4200,"target":34963},{"buffer":0,"byteOffset":2235552,"byteLength":2976,"target":34962},{"buffer":0,"byteOffset":2238528,"byteLength":2976,"target":34962},{"buffer":0,"byteOffset":2241504,"byteLength":1984,"target":34962},{"buffer":0,"byteOffset":2243488,"byteLength":360,"target":34963},{"buffer":0,"byteOffset":2243848,"byteLength":384,"target":34962},{"buffer":0,"byteOffset":2244232,"byteLength":384,"target":34962},{"buffer":0,"byteOffset":2244616,"byteLength":256,"target":34962},{"buffer":0,"byteOffset":2244872,"byteLength":37440,"target":34963},{"buffer":0,"byteOffset":2282312,"byteLength":56232,"target":34962},{"buffer":0,"byteOffset":2338544,"byteLength":56232,"target":34962},{"buffer":0,"byteOffset":2394776,"byteLength":37488,"target":34962},{"buffer":0,"byteOffset":2432264,"byteLength":20},{"buffer":0,"byteOffset":2432284,"byteLength":80}],"textures":[{"sampler":0,"source":0}],"images":[{"uri":"logoB.jpg","mimeType":"image/jpeg"}],"samplers":[{"wrapS":10497,"wrapT":10497}],"scene":0,"scenes":[{"nodes":[0],"name":"Enot project"}],"animations":[{"channels":[{"sampler":0,"target":{"node":2,"path":"rotation"}}],"samplers":[{"interpolation":"LINEAR","input":36,"output":37}],"name":"Animation 1"}],"extensionsUsed":["KHR_texture_transform"],"buffers":[{"byteLength":2432364,"uri":"Enotproject.bin"}]}